<?xml version="1.0" encoding="UTF-8" standalone="no"?>
<!-- Created with Inkscape (http://www.inkscape.org/) -->

<svg
   width="64mm"
   height="64mm"
   viewBox="0 0 64 64"
   version="1.1"
   id="svg5"
   sodipodi:docname="favicon.svg"
   xml:space="preserve"
   inkscape:version="1.2.2 (b0a8486541, 2022-12-01)"
   xmlns:inkscape="http://www.inkscape.org/namespaces/inkscape"
   xmlns:sodipodi="http://sodipodi.sourceforge.net/DTD/sodipodi-0.dtd"
   xmlns="http://www.w3.org/2000/svg"
   xmlns:svg="http://www.w3.org/2000/svg"><sodipodi:namedview
     id="namedview7"
     pagecolor="#ffffff"
     bordercolor="#000000"
     borderopacity="0.25"
     inkscape:showpageshadow="2"
     inkscape:pageopacity="0.0"
     inkscape:pagecheckerboard="0"
     inkscape:deskcolor="#d1d1d1"
     inkscape:document-units="mm"
     showgrid="false"
     inkscape:zoom="2.4971626"
     inkscape:cx="221.85179"
     inkscape:cy="217.24657"
     inkscape:window-width="2560"
     inkscape:window-height="1367"
     inkscape:window-x="2560"
     inkscape:window-y="0"
     inkscape:window-maximized="1"
     inkscape:current-layer="svg5" /><defs
     id="defs2"><clipPath
       clipPathUnits="userSpaceOnUse"
       id="clipPath9096"><circle
         style="display:inline;opacity:0.4;fill:#0000ff;stroke:none;stroke-width:29.8285;stroke-dasharray:none"
         id="circle9098"
         cx="396.8504"
         cy="561.25983"
         r="194.18433" /></clipPath></defs><g
     id="g41801"
     inkscape:export-filename="64.png"
     inkscape:export-xdpi="23.280371"
     inkscape:export-ydpi="23.280371"
     transform="matrix(0.91655006,0,0,0.91655006,-64.237756,-104.10768)"><circle
       style="opacity:1;fill:#3465a4;stroke:none;stroke-width:5.56608;stroke-dasharray:none;stroke-opacity:1"
       id="path41272"
       cx="105"
       cy="148.5"
       r="34.913532" /><path
       id="path31085"
       style="color:#000000;display:inline;opacity:1;fill:#ffffff;-inkscape-stroke:none"
       d="m 104.99922,122.0055 c -0.33101,0 -0.6599,0.008 -0.98806,0.0202 -0.076,0.003 -0.15205,0.005 -0.22789,0.009 -0.32099,0.0144 -0.64112,0.0338 -0.95911,0.0594 -0.0483,0.004 -0.0965,0.009 -0.1447,0.0129 -0.30709,0.0264 -0.61264,0.0579 -0.91674,0.0946 -0.0385,0.005 -0.0773,0.008 -0.11575,0.0129 -0.31652,0.0396 -0.6311,0.0859 -0.94413,0.13643 -0.0521,0.008 -0.10408,0.0171 -0.15607,0.0258 -0.684778,0.11475 -1.360868,0.25547 -2.027257,0.42117 -0.02238,0.006 -0.04483,0.0109 -0.06718,0.0165 -0.62244,0.15649 -1.23414,0.33981 -1.83865,0.53899 -0.12887,0.0425 -0.25697,0.0864 -0.38499,0.13074 -0.59038,0.20457 -1.17407,0.4233 -1.745111,0.66714 -0.05474,0.0234 -0.107709,0.0502 -0.162264,0.0739 -0.539228,0.23453 -1.068242,0.48833 -1.588533,0.75654 -0.101546,0.0523 -0.204098,0.10299 -0.304891,0.15658 -0.542946,0.28872 -1.0746,0.59577 -1.594735,0.91984 -0.09563,0.0596 -0.189399,0.12169 -0.28422,0.18242 -0.512526,0.32832 -1.016187,0.66909 -1.504301,1.03043 -0.02251,0.0167 -0.04576,0.0324 -0.06821,0.0491 -0.502276,0.37424 -0.987416,0.77014 -1.461927,1.17771 -0.09124,0.0784 -0.182673,0.1566 -0.272851,0.23616 -0.462057,0.40768 -0.912038,0.82855 -1.345138,1.26659 -0.05577,0.0564 -0.10906,0.1152 -0.164331,0.17208 -0.407311,0.41925 -0.800706,0.85216 -1.180289,1.29708 -0.05326,0.0624 -0.108532,0.12312 -0.161231,0.18603 -0.398013,0.4752 -0.77808,0.96546 -1.143083,1.46761 -0.0668,0.0919 -0.132262,0.18475 -0.19792,0.27751 -0.366583,0.51793 -0.720576,1.0456 -1.050582,1.58955 -0.329295,0.54279 -0.633931,1.10173 -0.925009,1.66864 -0.05,0.0974 -0.101539,0.19392 -0.150379,0.29197 -0.279442,0.56106 -0.540319,1.1328 -0.780831,1.71514 -0.03398,0.0823 -0.06552,0.16589 -0.0987,0.24856 -0.227517,0.5669 -0.437651,1.14248 -0.626835,1.72755 -0.537128,1.66114 -0.919905,3.39076 -1.123962,5.17436 0.868545,-0.11559 2.30321,-0.24489 3.660758,-0.25839 0.452518,-0.005 0.896317,0.004 1.307931,0.03 6.432819,0.41958 12.09329,3.59035 15.831588,8.34884 -2.17193,0.57667 -4.222055,1.45606 -6.102466,2.59054 -2.844569,-2.88217 -6.791089,-4.67413 -11.140406,-4.67413 -1.208097,0 -2.38498,0.13803 -3.516064,0.39946 0.206473,1.64381 0.557799,3.24303 1.048515,4.78162 0.791672,-0.18347 1.61761,-0.28061 2.467549,-0.28061 2.778811,0 5.301462,1.03622 7.205763,2.74557 -1.961658,1.82982 -3.613252,3.98809 -4.864819,6.38669 1.098654,1.34226 2.324096,2.57681 3.658174,3.68505 2.80859,-6.7753 9.474065,-11.52075 17.286287,-11.52075 7.74679,0 14.36551,4.6661 17.21394,11.35073 1.32326,-1.12115 2.53713,-2.36735 3.62303,-3.7207 -1.26255,-2.36324 -2.91569,-4.48816 -4.87154,-6.2885 1.88934,-1.64502 4.36338,-2.63809 7.08329,-2.63809 0.83892,0 1.65065,0.1038 2.43293,0.28267 0.49045,-1.53747 0.84655,-3.1344 1.05316,-4.77697 -1.12324,-0.25763 -2.28702,-0.40617 -3.48609,-0.40617 -4.30382,0 -8.21309,1.75536 -11.051,4.58473 -1.92136,-1.13996 -4.01694,-2.01536 -6.23632,-2.57504 3.75171,-4.73302 9.41297,-7.87851 15.83883,-8.27908 0.29862,-0.007 0.61319,-0.0108 0.95343,-0.009 1.02073,0.004 2.27243,0.06 4.01681,0.2527 -0.20293,-1.78011 -0.58301,-3.50678 -1.11776,-5.16506 -0.19048,-0.5907 -0.40298,-1.17136 -0.63252,-1.74356 -0.0331,-0.0825 -0.0643,-0.16598 -0.0982,-0.24805 -0.24027,-0.58208 -0.50166,-1.15328 -0.78083,-1.71411 -0.0489,-0.0982 -0.0998,-0.19502 -0.14986,-0.29249 -0.5847,-1.13937 -1.24794,-2.23173 -1.98334,-3.27007 -0.0616,-0.087 -0.12289,-0.17422 -0.18552,-0.26045 -0.3671,-0.50554 -0.74925,-0.9997 -1.1498,-1.47795 -0.051,-0.0609 -0.10456,-0.11944 -0.15606,-0.17983 -0.38323,-0.44948 -0.78067,-0.88618 -1.19218,-1.30948 -0.0513,-0.0528 -0.10072,-0.10734 -0.15244,-0.15968 -0.43374,-0.43895 -0.88441,-0.86067 -1.34721,-1.26917 -0.0916,-0.0809 -0.18426,-0.16067 -0.27698,-0.2403 -0.47453,-0.40756 -0.95964,-0.80296 -1.46193,-1.17719 -0.019,-0.0142 -0.0388,-0.0272 -0.0579,-0.0413 -0.48903,-0.36236 -0.99384,-0.70484 -1.5074,-1.03405 -0.098,-0.0628 -0.19519,-0.12654 -0.29404,-0.1881 -0.51864,-0.32306 -1.04825,-0.62933 -1.58956,-0.91725 -0.10093,-0.0537 -0.20373,-0.10416 -0.30541,-0.15658 -0.52756,-0.27201 -1.06373,-0.53003 -1.61076,-0.7674 -0.0446,-0.0194 -0.0881,-0.0408 -0.1328,-0.0599 -0.57517,-0.24586 -1.16324,-0.46682 -1.75804,-0.67283 -0.1256,-0.0435 -0.25132,-0.0865 -0.37775,-0.12816 -0.60375,-0.19903 -1.21442,-0.38254 -1.83607,-0.53898 -0.0263,-0.007 -0.0528,-0.0126 -0.0791,-0.0191 -0.66367,-0.16487 -1.33708,-0.30476 -2.019,-0.4191 -0.054,-0.009 -0.10811,-0.0181 -0.16226,-0.0269 -0.31104,-0.0502 -0.62345,-0.096 -0.93793,-0.13539 -0.0407,-0.005 -0.0817,-0.009 -0.12247,-0.014 -0.30248,-0.0365 -0.60665,-0.0678 -0.91209,-0.094 -0.0482,-0.004 -0.0964,-0.009 -0.1447,-0.0129 -0.32472,-0.0262 -0.65091,-0.046 -0.97875,-0.0605 -0.0611,-0.003 -0.12229,-0.004 -0.18345,-0.007 -0.33639,-0.0125 -0.67398,-0.0212 -1.01337,-0.0212 z m 0,4.90047 c 9.30187,0 17.22632,5.73274 20.44474,13.86891 -2.16723,0.21654 -4.25956,0.69219 -6.24561,1.39475 -2.52482,-5.28287 -7.92467,-8.95138 -14.14797,-8.95138 -6.243367,0 -11.657279,3.6923 -14.171746,9.00254 -2.009622,-0.72386 -4.128998,-1.21555 -6.326229,-1.44022 3.217038,-8.13917 11.142798,-13.8746 20.446815,-13.8746 z m 0.0512,11.21274 c 4.29784,0 7.98281,2.47886 9.71413,6.09369 -3.78698,2.18166 -6.99606,5.25878 -9.33535,8.94054 -0.0975,-0.001 -0.19519,-0.003 -0.293,-0.003 -0.20952,0 -0.41809,0.003 -0.62632,0.009 -2.3128,-3.64224 -5.477318,-6.69242 -9.20977,-8.87078 1.715873,-3.65614 5.42233,-6.16965 9.75031,-6.16965 z m -0.0568,26.2754 c -5.422307,0 -9.992666,3.85927 -11.098026,8.96483 1.495842,0.68184 3.062749,1.23236 4.689119,1.63246 0.3681,-3.23003 3.072207,-5.69888 6.408907,-5.69888 3.3378,0 6.04089,2.47042 6.40736,5.70198 1.62657,-0.39929 3.19401,-0.94881 4.69016,-1.62987 -1.10279,-5.10842 -5.67316,-8.97052 -11.09752,-8.97052 z" /></g></svg>
